<svg width="51" height="51" viewBox="0 0 51 51" fill="none" xmlns="http://www.w3.org/2000/svg">
<path d="M1.25037 30.297H17.3073C19.7776 30.297 22.2478 33.9279 24.7181 33.9279C26.8533 33.9279 30.8338 32.1196 32.6722 35.5363C33.2532 36.6161 32.4772 37.85 31.3264 38.3175C28.6608 39.4005 25.6918 40.8716 24.7181 41.1896L17.3073 38.769M33.3642 36.3484L44.6682 31.9178C45.3544 31.6489 46.1007 31.5612 46.8324 31.6636C49.4183 32.0256 50.1487 35.3446 47.945 36.7187L29.0624 48.4931C27.8706 49.2363 26.411 49.444 25.0527 49.0637L1.25037 42.3999M18.5424 13.3529V19.4044C18.5424 22.7465 21.3074 25.4558 24.7181 25.4558C28.1289 25.4558 30.8939 22.7465 30.8939 19.4044V13.3529M18.5424 13.3529V7.30146C18.5424 3.95933 21.3074 1.25 24.7181 1.25C28.1289 1.25 30.8939 3.95933 30.8939 7.30146V13.3529M18.5424 13.3529H30.8939" stroke="#0086FF" stroke-width="2.5" stroke-linecap="round" stroke-linejoin="round"/>
</svg>
